#!OML:ASF F:\VICON\USERDATA\INSTALL\rory3\rory3.ASF
:FULLY-SPECIFIED
:DEGREES
94
root -0.0366950493784709 17.593888674123793 36.41341764554007 -1.600553472352834 -4.975642735041348 -7.413284182413497
lfemur -26.311310158838445 -7.450447761994158 -8.361618468098232
ltibia 32.789352875994176
lfoot -6.65959020420421 -2.1964951152560164
ltoes -4.413548055644079
rfemur -2.087661674608084 6.3754976063158555 29.72552621856687
rtibia 45.563342902995835
rfoot -6.6640857361521135 -4.456312087949291
rtoes 4.061513888290169
lowerback 9.609960829741382 1.639404887300283 4.2862890506417415
upperback 0.12476521227920256 2.9800641901306424 1.7765257190076231
thorax -4.925653167829489 1.313336448912792 -0.7460616759701226
lowerneck -16.000669927573963 -2.8112559551133876 -1.899684626798587
upperneck 20.731727915300674 -3.4354085700808903 0.8823605690295262
head 9.32964349085865 -1.7285595099609192 0.17546028659478713
lclavicle -1.3879679699872363e-15 -1.8442003054902824e-15
lhumerus -37.338121423877524 11.240928462665476 78.7266994697416
lradius 22.490876362535666
lwrist 1.1993085946086472
lhand -27.316291608563866 23.845086794937494
lfingers 7.125019999999999
lthumb -0.6473833912942131 54.00219428210331
rclavicle -1.388973382687349e-15 -1.84513455421548e-15
rhumerus -22.287929110212495 -15.15455437207347 -81.68841313310955
rradius 24.800677780928734
rwrist 3.8711676600595215
rhand -18.387211374302623 22.68162382662717
rfingers 7.125019999999999
rthumb 7.94395029714915 -7.127082287220807
95
root 0.012563377870912329 17.581546619629727 37.14432586995815 -2.0089578077197805 -4.865482465101191 -6.959093531399972
lfemur -26.683386964209774 -5.104168091146123 -10.41353610269288
ltibia 34.504018228077946
lfoot -7.275301364822777 -2.51884434120906
ltoes -4.029968829918173
rfemur -1.8150773156918962 6.171569417009095 29.173936527764948
rtibia 46.83266078817718
rfoot -6.780115866517476 -4.575339885388335
rtoes 3.95376830180335
lowerback 9.630508401033236 1.6676350466210228 3.9617442633744226
upperback 0.16002359021751938 2.9755430701333236 1.6629273202443915
thorax -4.943555311589708 1.320122319695518 -0.6637814655017917
lowerneck -15.99214051306149 -2.8267114134501035 -1.9046409527906285
upperneck 20.686195388414237 -3.4870325004013707 0.8896270310840512
head 9.30821111872833 -1.7366896676090087 0.1720876024441666
lclavicle -1.3879679699872363e-15 -1.8442003054902824e-15
lhumerus -37.511217934410226 11.835821687237232 78.31881037067501
lradius 22.673696885771182
lwrist 1.868629335413108
lhand -27.411875282695842 23.64441476606889
lfingers 7.125019999999999
lthumb -0.6906941459731609 53.90509731847917
rclavicle -1.388973382687349e-15 -1.84513455421548e-15
rhumerus -22.644538558711933 -15.84675687970664 -81.54143114487661
rradius 24.87758260495284
rwrist 3.9037508635403455
rhand -18.36927470655002 22.71171556614645
rfingers 7.125019999999999
rthumb 7.953944520155354 -7.099600380012378
96
root 0.06928735090285382 17.59129574507719 38.118199105592275 -2.55602988052576 -4.6501738166589535 -6.293472390007501
lfemur -26.863803953417083 -3.8646926215197563 -12.429640300892183
ltibia 36.55717809775005
lfoot -6.864269914179225 -2.009500541424836
ltoes -4.0208591646288285
rfemur -1.7961464775214715 5.875626813331057 28.610249776299604
rtibia 47.568065702596634
rfoot -6.730293817279266 -4.713886844102848
rtoes 4.083587092849373
lowerback 9.683522072513147 1.6428329810477786 3.4765445070411913
upperback 0.1977076466769589 2.8830842136411827 1.5124349822471637
thorax -4.967079273226809 1.3090757586067083 -0.5321941027071126
lowerneck -15.939043128145519 -2.821958813815062 -1.8849550686824295
upperneck 20.647723529135174 -3.5328821360330678 0.8787545653376081
head 9.292893567244672 -1.7425980322036538 0.16657087691325018
lclavicle -1.3879679699872362e-15 -1.8442003054902824e-15
lhumerus -37.490396648494816 11.928038571157465 78.18810104559547
lradius 22.84394049384977
lwrist 2.347565430209086
lhand -27.27778464777971 23.876581605751948
lfingers 7.125019999999999
lthumb -0.6668661086096054 53.95253260648671
rclavicle -1.388973382687349e-15 -1.84513455421548e-15
rhumerus -23.43146910518941 -16.807423158680017 -81.40760664930755
rradius 24.85546894616172
rwrist 4.05329326317961
rhand -18.37163361647247 22.708744378502157
rfingers 7.125019999999999
rthumb 7.954920901406244 -7.081123003700032
97
root 0.12456349473717687 17.61748461650541 38.94122210861744 -3.1371125893525065 -4.4508324716666205 -5.469956161859772
lfemur -25.97798981145366 -3.3829012022093945 -14.351619893309481
ltibia 38.69382739478989
lfoot -7.0069706349770655 -2.298180260673531
ltoes -4.295011014960867
rfemur -2.7820965906022916 5.448890540432325 27.65620380641691
rtibia 47.831987098920855
rfoot -6.408379382459531 -4.728442190163169
rtoes 4.247775997740058
lowerback 9.78446486626726 1.587860687636074 2.927022676919127
upperback 0.26354859564577343 2.757530386592412 1.3588206737170054
thorax -4.997321876982787 1.281199928840688 -0.3439527739448245
lowerneck -15.912134355939784 -2.824775299144541 -1.8839533386902898
upperneck 20.705177105077674 -3.5256799210517773 0.9193000764741419
head 9.29417679541449 -1.738406432235433 0.16811347655582187
lclavicle -1.3879679699872362e-15 -1.8442003054902824e-15
lhumerus -37.14544949669166 11.575829605635402 78.36814030768845
lradius 23.121523373728472
lwrist 2.820286416396423
lhand -27.410858508050357 23.639320923278913
lfingers 7.125019999999999
lthumb -0.6961176427744307 53.88705310237462
rclavicle -1.388973382687349e-15 -1.84513455421548e-15
rhumerus -24.431560194849023 -17.82342363287414 -81.28128459810503
rradius 24.77853043755815
rwrist 4.49279784308678
rhand -18.358891786484676 22.715776906865997
rfingers 7.125019999999999
rthumb 7.97465149803994 -7.050889344234963
98
root 0.17640529632805535 17.655330497117156 39.704012108287586 -3.6516567694784032 -4.27982307034422 -4.5204378135851755
lfemur -24.468567043354092 -2.5465658025213895 -16.44425372423015
ltibia 40.014728716303566
lfoot -6.137092780900345 -1.667331895872359
ltoes -4.785018985080087
rfemur -4.139265574532738 5.009376346424617 26.75269949745566
rtibia 47.67410971097842
rfoot -5.934230394248182 -4.774474380325814
rtoes 4.241609412147806
lowerback 9.929585053275302 1.5415149870047749 2.497063528652806
upperback 0.3252679120024389 2.511524007466247 1.1890532721068152
thorax -5.0401063133503685 1.227565303804281 -0.15722050918892228
lowerneck -15.876261013062978 -2.8195968539528886 -1.8738304243427728
upperneck 20.70350751385843 -3.5424435329687896 0.8885574653246449
head 9.295343101395925 -1.7359462895014366 0.16358834586390475
lclavicle -1.3879679699872362e-15 -1.8442003054902824e-15
lhumerus -36.581606854614385 10.718440325280193 78.75913517254946
lradius 23.463075233194903
lwrist 3.459083535171493
lhand -27.279685358445345 23.87858386104071
lfingers 7.125019999999999
lthumb -0.587724857952386 54.06078016261474
rclavicle -1.388973382687349e-15 -1.84513455421548e-15
rhumerus -25.382454691047382 -18.69715523378025 -81.14678143782828
rradius 24.670257455146302
rwrist 4.882681953630781
rhand -18.375470965742533 22.68969895023646
rfingers 7.125019999999999
rthumb 7.98332400674079 -7.038928401213923
99
root 0.2218154488265796 17.699059418754135 40.458280469866494 -4.055472859341149 -4.082603485884431 -3.555522788186779
lfemur -21.802323244144326 -1.9469386043771728 -18.852905949916572
ltibia 40.47526167445966
lfoot -6.357683837249797 -1.8549782004808804
ltoes -4.799811238293915
rfemur -5.960386705791942 4.4633187429034535 25.802293474418754
rtibia 47.046257224997476
rfoot -5.373234419750101 -4.877233142463426
rtoes 4.198545737231616
lowerback 10.056622301953421 1.435160032492064 1.972869580512275
upperback 0.39887358915311083 2.2257916165712044 1.0525083383128544
thorax -5.080400887197673 1.1529043803060082 0.06532416325274415
lowerneck -15.893571315297201 -2.8349873595146717 -1.9032734974021528
upperneck 20.816907067136214 -3.5127056872266875 0.9449071505491476
head 9.301511134994842 -1.7263924622980718 0.16427932310837984
lclavicle -1.3879679699872362e-15 -1.8442003054902824e-15
lhumerus -35.71558223068242 9.608725004201064 79.23592203707784
lradius 23.78552806002677
lwrist 3.9955856480077743
lhand -27.43578189161007 23.604246256952607
lfingers 7.125019999999999
lthumb -0.6246854879697121 53.97762397422263
rclavicle -1.388973382687349e-15 -1.84513455421548e-15
rhumerus -26.146176663731055 -19.364416539935497 -80.93019761920735
rradius 24.602905218203944
rwrist 5.191207290169818
rhand -18.325972488442464 22.74673719078778
rfingers 7.125019999999999
rthumb 7.997585693277241 -7.016884377321485
100
root 0.25897077716764266 17.74163516046406 41.259006799614745 -4.34703655204069 -3.7882197316118056 -2.7039414561212647
lfemur -18.559908457532607 -1.9892804474255597 -20.90261084428675
ltibia 40.24443227551083
lfoot -6.902310282728123 -1.751072986729277
ltoes -4.7366847547738615
rfemur -8.300633978686545 3.951911885870048 24.78008993509863
rtibia 45.750456709138405
rfoot -5.367244199060931 -5.050221084016958
rtoes 4.400168347158234
lowerback 10.216234311151812 1.3514674653332295 1.6341995801097338
upperback 0.4631711026181103 1.7991982205366175 0.9309894182625505
thorax -5.1306091044774105 1.0345060698020985 0.2548264649842872
lowerneck -15.911334961976955 -2.844001121404228 -1.9280385658964754
upperneck 20.847922275191173 -3.5154953473574486 0.9440158053886862
head 9.305670677495158 -1.7220316006133314 0.1581566848307382
lclavicle -1.3879679699872362e-15 -1.8442003054902824e-15
lhumerus -34.64815918843297 8.234106857522946 79.70944858101237
lradius 23.956292503048154
lwrist 4.210157766576983
lhand -27.3512514609227 23.786323828486168
lfingers 7.125019999999999
lthumb -0.538777359982354 54.11917105818475
rclavicle -1.388973382687349e-15 -1.84513455421548e-15
rhumerus -26.806953254296396 -19.900111226521958 -80.58565318032167
rradius 24.565173862818906
rwrist 5.223295986366933
rhand -18.33847407595085 22.748396140097757
rfingers 7.125019999999999
rthumb 8.015186437293377 -6.979800205349527
